<?xml version="1.0" encoding="utf-8"?><svg xmlns="http://www.w3.org/2000/svg" xmlns:xlink="http://www.w3.org/1999/xlink"><symbol viewBox="0 0 256 256" id="cross" xmlns="http://www.w3.org/2000/svg"><path d="M205.66 194.34a8 8 0 0 1-11.32 11.32L128 139.31l-66.34 66.35a8 8 0 0 1-11.32-11.32L116.69 128 50.34 61.66a8 8 0 0 1 11.32-11.32L128 116.69l66.34-66.35a8 8 0 0 1 11.32 11.32L139.31 128Z"/></symbol><symbol viewBox="0 0 256 256" id="email" xmlns="http://www.w3.org/2000/svg"><path d="M224 48H32a8 8 0 0 0-8 8v136a16 16 0 0 0 16 16h176a16 16 0 0 0 16-16V56a8 8 0 0 0-8-8Zm-96 85.15L52.57 64h150.86ZM98.71 128 40 181.81V74.19Zm11.84 10.85 12 11.05a8 8 0 0 0 10.82 0l12-11.05 58 53.15H52.57ZM157.29 128 216 74.18v107.64Z"/></symbol><symbol viewBox="0 0 256 256" id="instagram" xmlns="http://www.w3.org/2000/svg"><path d="M128 80a48 48 0 1 0 48 48 48.05 48.05 0 0 0-48-48Zm0 80a32 32 0 1 1 32-32 32 32 0 0 1-32 32Zm48-136H80a56.06 56.06 0 0 0-56 56v96a56.06 56.06 0 0 0 56 56h96a56.06 56.06 0 0 0 56-56V80a56.06 56.06 0 0 0-56-56Zm40 152a40 40 0 0 1-40 40H80a40 40 0 0 1-40-40V80a40 40 0 0 1 40-40h96a40 40 0 0 1 40 40ZM192 76a12 12 0 1 1-12-12 12 12 0 0 1 12 12Z"/></symbol><symbol class="dmoon" viewBox="0 0 49.739 49.739" xml:space="preserve" id="moon" xmlns="http://www.w3.org/2000/svg"><path d="M25.068 48.889c-9.173 0-18.017-5.06-22.396-13.804A24.91 24.91 0 0 1 13.003 1.979L15.064.85l-.615 2.268a22.962 22.962 0 0 0 1.633 16.306A22.848 22.848 0 0 0 29.387 30.95a22.855 22.855 0 0 0 17.559-1.258c.25-.125.492-.258.734-.391l2.061-1.13-.585 2.252a25.032 25.032 0 0 1-12.933 15.822 24.877 24.877 0 0 1-11.155 2.644zM12.002 4.936a22.906 22.906 0 0 0-7.54 29.253c5.678 11.34 19.522 15.945 30.864 10.268A23.037 23.037 0 0 0 46.507 32.1c-5.632 2.427-11.882 2.702-17.752.748-6.337-2.108-11.473-6.557-14.463-12.528a24.948 24.948 0 0 1-2.29-15.384z"/></symbol><symbol viewBox="0 0 256 256" id="phone" xmlns="http://www.w3.org/2000/svg"><path d="m222.37 158.46-47.11-21.11-.13-.06a16 16 0 0 0-15.17 1.4 8.12 8.12 0 0 0-.75.56L134.87 160c-15.42-7.49-31.34-23.29-38.83-38.51l20.78-24.71c.2-.25.39-.5.57-.77a16 16 0 0 0 1.32-15.06v-.12L97.54 33.64a16 16 0 0 0-16.62-9.52A56.26 56.26 0 0 0 32 80c0 79.4 64.6 144 144 144a56.26 56.26 0 0 0 55.88-48.92 16 16 0 0 0-9.51-16.62ZM176 208A128.14 128.14 0 0 1 48 80a40.2 40.2 0 0 1 34.87-40 .61.61 0 0 0 0 .12l21 47-20.67 24.74a6.13 6.13 0 0 0-.57.77 16 16 0 0 0-1 15.7c9.06 18.53 27.73 37.06 46.46 46.11a16 16 0 0 0 15.75-1.14 8.44 8.44 0 0 0 .74-.56L168.89 152l47 21.05h.11A40.21 40.21 0 0 1 176 208Z"/></symbol><symbol class="fsun" viewBox="0 0 496 496" xml:space="preserve" id="sun" xmlns="http://www.w3.org/2000/svg"><path d="m172.731 45.386 15.309 36.957-14.783 6.123-15.308-36.957zM51.483 157.938l36.957 15.309-6.123 14.782L45.36 172.72zm-6.071 165.38 36.957-15.309 6.123 14.783L51.535 338.1zM172.7 450.662l-14.781-6.124 15.311-36.951 14.781 6.124zm150.601-.097-15.308-36.957 14.782-6.123 15.308 36.956zm121.198-112.512-36.957-15.309 6.123-14.782 36.957 15.308zm6.085-165.304-36.957 15.308-6.123-14.782 36.957-15.309zM323.259 45.351l14.78 6.125-15.311 36.951-14.781-6.125zM248 88c-88.224 0-160 71.776-160 160s71.776 160 160 160 160-71.776 160-160S336.224 88 248 88zm0 304c-79.4 0-144-64.6-144-144s64.6-144 144-144 144 64.6 144 144-64.6 144-144 144zM240 0h16v72h-16zM78.298 66.982l50.91 50.91-11.313 11.314-50.91-50.91zM0 240h72v16H0zm78.291 189.03-11.314-11.314 50.91-50.91 11.315 11.313zM240 424h16v72h-16zm177.679 5.033-50.91-50.91 11.313-11.314 50.91 50.91zM424 240h72v16h-72zm-6.292-173.025 11.314 11.314-50.91 50.91-11.314-11.314z"/></symbol><symbol viewBox="0 0 256 256" id="telegram" xmlns="http://www.w3.org/2000/svg"><path d="M236.88 26.19a9 9 0 0 0-9.16-1.57L25.06 103.93a14.22 14.22 0 0 0 2.43 27.21L80 141.45V200a15.92 15.92 0 0 0 10 14.83 15.91 15.91 0 0 0 17.51-3.73l25.32-26.26L173 220a15.88 15.88 0 0 0 10.51 4 16.3 16.3 0 0 0 5-.79 15.85 15.85 0 0 0 10.67-11.63L239.77 35a9 9 0 0 0-2.89-8.81Zm-61.14 36-89.59 64.16-49.6-9.73ZM96 200v-47.48l24.79 21.74Zm87.53 8-82.68-72.5 119-85.29Z"/></symbol><symbol viewBox="0 0 256 256" id="website" xmlns="http://www.w3.org/2000/svg"><path d="M128 24a104 104 0 1 0 104 104A104.11 104.11 0 0 0 128 24Zm-26.37 144h52.74C149 186.34 140 202.87 128 215.89c-12-13.02-21-29.55-26.37-47.89ZM98 152a145.72 145.72 0 0 1 0-48h60a145.72 145.72 0 0 1 0 48Zm-58-24a87.61 87.61 0 0 1 3.33-24h38.46a161.79 161.79 0 0 0 0 48H43.33A87.61 87.61 0 0 1 40 128Zm114.37-40h-52.74C107 69.66 116 53.13 128 40.11c12 13.02 21 29.55 26.37 47.89Zm19.84 16h38.46a88.15 88.15 0 0 1 0 48h-38.46a161.79 161.79 0 0 0 0-48Zm32.16-16h-35.43a142.39 142.39 0 0 0-20.26-45 88.37 88.37 0 0 1 55.69 45ZM105.32 43a142.39 142.39 0 0 0-20.26 45H49.63a88.37 88.37 0 0 1 55.69-45ZM49.63 168h35.43a142.39 142.39 0 0 0 20.26 45 88.37 88.37 0 0 1-55.69-45Zm101.05 45a142.39 142.39 0 0 0 20.26-45h35.43a88.37 88.37 0 0 1-55.69 45Z"/></symbol></svg>